<svg width="512" height="160" viewBox="0 0 512 160" fill="none" xmlns="http://www.w3.org/2000/svg">
  <rect width="512" height="160" rx="24" fill="#020611"/>
  <path d="M77.252 33C51.179 33 30 54.179 30 80.252C30 106.325 51.179 127.504 77.252 127.504C93.354 127.504 107.572 119.459 116.109 107.171L102.342 99.127C96.617 107.071 87.315 112.195 77.252 112.195C59.638 112.195 45.309 97.866 45.309 80.252C45.309 62.638 59.638 48.309 77.252 48.309C94.866 48.309 109.195 62.638 109.195 80.252C109.195 83.154 108.806 85.982 108.078 88.679L121.818 96.709C123.828 91.575 124.943 85.992 124.943 80.252C124.943 54.179 103.764 33 77.252 33Z" fill="url(#paint0_linear)"/>
  <path d="M24.295 90.765C12.967 98.646 7.542 106.91 9.505 112.49C12.748 121.591 34.541 120.591 61.197 111.941C86.698 103.672 111.592 89.884 127.473 75.174C143.382 60.463 147.8 46.62 139.917 41.336C134.572 37.713 124.066 39.159 111.274 44.961L114.406 50.679C125.315 45.869 133.384 44.461 136.827 46.86C141.665 50.163 137.736 60.688 122.339 74.825C106.942 88.962 83.121 102.095 58.788 109.782C34.482 117.468 16.693 118.363 14.833 113.164C13.667 109.871 18.106 103.975 28.034 97.077L24.295 90.765Z" fill="url(#paint1_linear)"/>
  <circle cx="87.147" cy="68.627" r="5.555" fill="url(#paint2_linear)"/>
  <path d="M159.427 68.314C159.427 61.262 165.07 55.62 172.182 55.62H191.505C198.617 55.62 204.259 61.262 204.259 68.314V91.686C204.259 98.738 198.617 104.38 191.505 104.38H172.182C165.07 104.38 159.427 98.738 159.427 91.686V68.314ZM173.099 63.912C169.469 63.912 166.589 66.791 166.589 70.422V89.578C166.589 93.208 169.469 96.088 173.099 96.088H190.588C194.219 96.088 197.099 93.208 197.099 89.578V70.422C197.099 66.791 194.219 63.912 190.588 63.912H173.099Z" fill="#F8F8F7"/>
  <path d="M216.66 55.62H252.048C259.16 55.62 264.803 61.262 264.803 68.314V75.862C264.803 81.201 261.673 85.809 256.955 87.736L266.483 104.38H257.982L249.044 88.82H223.822V104.38H216.66V55.62ZM223.822 63.912V80.721H251.131C254.762 80.721 257.641 77.841 257.641 74.211V70.422C257.641 66.791 254.762 63.912 251.131 63.912H223.822Z" fill="#F8F8F7"/>
  <path d="M276.331 55.62H313.887C320.999 55.62 326.642 61.262 326.642 68.314V73.157C326.642 77.095 324.504 80.431 321.293 82.127C325.255 83.779 327.891 87.552 327.891 91.825V91.686C327.891 98.738 322.248 104.38 315.136 104.38H276.331V55.62ZM283.493 63.912V78.17H312.97C316.601 78.17 319.48 75.29 319.48 71.66V70.422C319.48 66.791 316.601 63.912 312.97 63.912H283.493ZM283.493 86.322V96.088H314.22C317.85 96.088 320.73 93.208 320.73 89.578V89.3C320.73 87.167 319.675 85.177 317.721 84.03H283.493V86.322Z" fill="#F8F8F7"/>
  <path d="M340.962 55.62H348.123V104.38H340.962V55.62Z" fill="#F8F8F7"/>
  <path d="M374.876 79.196L352.453 55.62H362.246L380.064 74.31L397.882 55.62H407.675L385.252 79.196L409.671 104.38H399.808L380.064 83.943L360.319 104.38H350.457L374.876 79.196Z" fill="url(#paint3_linear)"/>
  <defs>
    <linearGradient id="paint0_linear" x1="40.465" y1="42.038" x2="120.281" y2="114.106" gradientUnits="userSpaceOnUse">
      <stop stop-color="#1479FF"/>
      <stop offset="0.56" stop-color="#0C5DFF"/>
      <stop offset="1" stop-color="#1A3DE1"/>
    </linearGradient>
    <linearGradient id="paint1_linear" x1="26.598" y1="104.282" x2="131.554" y2="46.122" gradientUnits="userSpaceOnUse">
      <stop stop-color="#0FC1FF"/>
      <stop offset="1" stop-color="#18E9ED"/>
    </linearGradient>
    <linearGradient id="paint2_linear" x1="81.592" y1="63.072" x2="92.702" y2="74.182" gradientUnits="userSpaceOnUse">
      <stop stop-color="#1AE7ED"/>
      <stop offset="1" stop-color="#1165FF"/>
    </linearGradient>
    <linearGradient id="paint3_linear" x1="352.453" y1="55.62" x2="409.671" y2="104.38" gradientUnits="userSpaceOnUse">
      <stop stop-color="#16D7E9"/>
      <stop offset="1" stop-color="#1664FF"/>
    </linearGradient>
  </defs>
</svg>
